HIERARCHY
ROOT Hips
{
	OFFSET 0.00000 0.00000 0.00000
	CHANNELS 6 Xposition Yposition Zposition Zrotation Yrotation Xrotation 
	JOINT LHipJoint
	{
		OFFSET 0 0 0
		CHANNELS 3 Zrotation Yrotation Xrotation
		JOINT LeftUpLeg
		{
			OFFSET 1.61328 -1.70571 0.84375
			CHANNELS 3 Zrotation Yrotation Xrotation
			JOINT LeftLeg
			{
				OFFSET 2.32400 -6.38513 0.00000
				CHANNELS 3 Zrotation Yrotation Xrotation
				JOINT LeftFoot
				{
					OFFSET 2.58843 -7.11166 0.00000
					CHANNELS 3 Zrotation Yrotation Xrotation
					JOINT LeftToeBase
					{
						OFFSET 0.17200 -0.47257 2.47970
						CHANNELS 3 Zrotation Yrotation Xrotation
						End Site
						{
							OFFSET 0.00000 -0.00000 1.26912
						}
					}
				}
			}
		}
	}
	JOINT RHipJoint
	{
		OFFSET 0 0 0
		CHANNELS 3 Zrotation Yrotation Xrotation
		JOINT RightUpLeg
		{
			OFFSET -1.49930 -1.70570 0.84375
			CHANNELS 3 Zrotation Yrotation Xrotation
			JOINT RightLeg
			{
				OFFSET -2.30458 -6.33178 0.00000
				CHANNELS 3 Zrotation Yrotation Xrotation
				JOINT RightFoot
				{
					OFFSET -2.62261 -7.20556 0.00000
					CHANNELS 3 Zrotation Yrotation Xrotation
					JOINT RightToeBase
					{
						OFFSET -0.18709 -0.51403 2.51340
						CHANNELS 3 Zrotation Yrotation Xrotation
						End Site
						{
							OFFSET -0.00000 -0.00000 1.28858
						}
					}
				}
			}
		}
	}
	JOINT LowerBack
	{
		OFFSET 0 0 0
		CHANNELS 3 Zrotation Yrotation Xrotation
		JOINT Spine
		{
			OFFSET -0.03798 2.19274 -0.19881
			CHANNELS 3 Zrotation Yrotation Xrotation
			JOINT Spine1
			{
				OFFSET -0.00024 2.19460 0.05248
				CHANNELS 3 Zrotation Yrotation Xrotation
				JOINT Neck
				{
					OFFSET 0 0 0
					CHANNELS 3 Zrotation Yrotation Xrotation
					JOINT Neck1
					{
						OFFSET -0.00746 1.82323 0.17286
						CHANNELS 3 Zrotation Yrotation Xrotation
						JOINT Head
						{
							OFFSET 0.11826 1.82121 -0.27841
							CHANNELS 3 Zrotation Yrotation Xrotation
							End Site
							{
								OFFSET 0.03496 1.85543 -0.11495
							}
						}
					}
				}
				JOINT LeftShoulder
				{
					OFFSET 0 0 0
					CHANNELS 3 Zrotation Yrotation Xrotation
					JOINT LeftArm
					{
						OFFSET 3.71926 0.78840 0.25473
						CHANNELS 3 Zrotation Yrotation Xrotation
						JOINT LeftForeArm
						{
							OFFSET 5.37587 -0.00000 0.00000
							CHANNELS 3 Zrotation Yrotation Xrotation
							JOINT LeftHand
							{
								OFFSET 3.35977 -0.00000 0.00000
								CHANNELS 3 Zrotation Yrotation Xrotation
								JOINT LeftFingerBase
								{
									OFFSET 0 0 0
									CHANNELS 3 Zrotation Yrotation Xrotation
									JOINT LeftHandIndex1
									{
										OFFSET 0.56186 -0.00000 0.00000
										CHANNELS 3 Zrotation Yrotation Xrotation
										End Site
										{
											OFFSET 0.45299 -0.00000 0.00000
										}
									}
								}
								JOINT LThumb
								{
									OFFSET 0 0 0
									CHANNELS 3 Zrotation Yrotation Xrotation
									End Site
									{
										OFFSET 0.45990 -0.00000 0.45990
									}
								}
							}
						}
					}
				}
				JOINT RightShoulder
				{
					OFFSET 0 0 0
					CHANNELS 3 Zrotation Yrotation Xrotation
					JOINT RightArm
					{
						OFFSET -3.65136 0.56074 0.01624
						CHANNELS 3 Zrotation Yrotation Xrotation
						JOINT RightForeArm
						{
							OFFSET -5.22819 -0.00000 0.00000
							CHANNELS 3 Zrotation Yrotation Xrotation
							JOINT RightHand
							{
								OFFSET -3.40764 -0.00000 0.00000
								CHANNELS 3 Zrotation Yrotation Xrotation
								JOINT RightFingerBase
								{
									OFFSET 0 0 0
									CHANNELS 3 Zrotation Yrotation Xrotation
									JOINT RightHandIndex1
									{
										OFFSET -0.58325 -0.00000 0.00000
										CHANNELS 3 Zrotation Yrotation Xrotation
										End Site
										{
											OFFSET -0.47024 -0.00000 0.00000
										}
									}
								}
								JOINT RThumb
								{
									OFFSET 0 0 0
									CHANNELS 3 Zrotation Yrotation Xrotation
									End Site
									{
										OFFSET -0.47742 -0.00000 0.47742
									}
								}
							}
						}
					}
				}
			}
		}
	}
}
MOTION
Frames: 8
Frame Time: 0.0555556
0.00 0.00 0.00 0 0 0 0 0 0 -21 0 0 0 0 0 0 0 0 0 0 0 0 0 0 21 0 0 0 0 0 0 0 0 0 0 0 0 0 0 0 0 0 0 0 0 0 0 -16 0 0 21 0 0 11 0 0 0 -8 0 0 0 0 0 0 0 0 0 0 0 0 0 0 0 0 0 0 0 0 8 0 0 0 0 0 0 0 0 0 0 0 0 0 0 0 0 0
0.00 0.00 0.00 -124.3480 -84.2098 124.5930 0.0000 0.0000 0.0000 -17.8851 8.1893 -9.5177 2.1247 9.1212 26.1752 1.2427 -2.6582 -20.3629 0.0034 0.3751 1.0306 0.0000 0.0000 0.0000 20.3754 9.9871 -15.9904 -6.1458 -14.5681 45.5640 -0.9967 3.4358 -18.0296 -0.3585 -3.8466 10.6455 -1.0405 0.6041 -2.2086 -0.3008 0.8223 4.2127 0.3266 0.3473 5.5872 -2.4525 -1.3019 -12.3212 4.8052 -2.1331 13.5943 1.7388 -0.8034 6.2302 -0.0000 0.0000 0.0000 -86.8784 -4.8817 43.0432 13.2865 -21.7055 -2.5583 -0.0000 0.0000 -8.2309 16.8054 18.6419 5.5143 -7.1250 0.0000 -0.0000 -11.1235 49.0684 -1.1287 -0.0000 0.0000 0.0000 89.3243 0.5409 23.7517 -14.2460 23.0852 -2.9239 0.0000 -0.0000 -3.1728 -19.9163 5.8368 -2.1102 7.1250 -0.0000 -0.0000 5.0371 -23.7784 2.5882
0.00 0.00 0.00 -132.1230 -84.6793 131.6860 0.0000 0.0000 0.0000 -19.0817 10.0253 -7.1668 1.7364 8.2939 23.6104 1.1713 -3.8308 -19.5447 0.0224 0.9666 2.6569 0.0000 0.0000 0.0000 18.4198 11.3260 -27.6847 -11.0227 -17.9462 62.8554 -0.4898 -2.6789 -14.4693 -0.6815 -5.2784 14.7044 -2.4966 0.3376 -1.1784 -1.4155 0.5335 4.5871 -0.0407 0.1546 5.3962 -2.8905 -1.0382 -11.8991 4.9945 -1.7425 13.7480 1.9078 -0.6293 6.1958 0.0000 0.0000 0.0000 -84.5469 -8.0854 55.2041 26.4196 -37.6200 -9.1426 -0.0000 0.0000 -14.3843 18.0332 18.9741 6.0424 -7.1250 0.0000 -0.0000 -10.0590 49.5924 -1.1494 0.0000 0.0000 0.0000 90.0957 -0.9054 25.1510 -14.8385 23.9206 -3.1602 0.0000 -0.0000 -3.9947 -19.8454 5.6214 -2.0248 7.1250 -0.0000 -0.0000 5.0928 -24.0091 2.5898
0.00 0.00 0.00 -84.4054 -87.5553 84.8183 0.0000 0.0000 0.0000 -20.3301 10.0120 0.0117 0.9796 6.3003 17.6583 1.1774 -4.7852 -19.4822 0.0090 0.6126 1.6833 0.0000 0.0000 0.0000 16.1438 17.1137 -34.7927 -7.3428 -15.6139 50.1591 -0.4726 -0.9733 -13.3752 -0.3073 -3.5640 9.8530 -4.5885 -0.6348 -0.9094 -2.1153 -0.6901 4.2059 0.3391 -0.5154 4.8919 -3.7774 -1.7157 -12.0140 6.1944 -2.5488 11.4435 2.3536 -0.9803 5.5518 -0.0000 0.0000 0.0000 -81.4464 -13.4309 74.0254 88.8845 -59.9953 -59.0340 -0.0000 0.0000 -19.1596 17.5523 18.9671 5.8697 -7.1250 0.0000 -0.0000 -10.5178 49.5110 -1.1816 -0.0000 0.0000 0.0000 90.2949 -4.0778 21.6760 -13.4508 21.9442 -2.6194 0.0000 -0.0000 -1.8330 -19.7271 5.7319 -2.0511 7.1250 -0.0000 -0.0000 5.1789 -23.8967 2.6474
0.00 0.00 0.00 -32.6342 -86.5369 34.1622 0.0000 0.0000 0.0000 -20.2460 9.6278 3.5795 0.6460 5.1416 14.3129 1.0920 -5.1449 -18.7086 0.0003 0.1022 0.2807 0.0000 0.0000 0.0000 14.1999 19.0354 -33.7741 -4.5200 -12.8220 38.7056 -0.4894 -0.5904 -13.4429 -0.3465 -3.7820 10.4642 -4.4416 -1.0969 -0.6357 -1.7392 -1.3366 4.0778 0.6213 -0.8277 4.6329 -4.0202 -2.2283 -11.9602 6.9527 -3.1148 8.1487 2.5750 -1.2493 4.5693 -0.0000 -0.0000 0.0000 -83.4349 -13.5102 80.6251 106.2245 -58.9816 -74.0028 -0.0000 0.0000 -18.2981 14.6341 17.5005 4.4897 -7.1250 0.0000 -0.0000 -12.7899 47.6117 -0.8372 -0.0000 -0.0000 0.0000 90.0002 -4.8295 22.1018 -13.9036 22.5968 -2.7910 0.0000 -0.0000 -2.7687 -19.4590 5.3639 -1.8917 7.1250 -0.0000 -0.0000 5.3848 -24.2952 2.7038
0.00 0.00 0.00 8.9662 -79.1246 -4.0916 0.0000 0.0000 0.0000 -16.8691 6.3726 1.7373 3.1754 10.9738 32.1915 0.1852 -5.0119 -7.9053 0.3216 -3.6450 -10.0799 0.0000 0.0000 0.0000 14.6161 13.2405 -31.7944 -5.8296 -14.2612 44.2940 -1.0155 1.7791 -18.5330 -1.0306 -6.4574 18.1176 -1.2723 -1.5853 0.2202 0.6669 -2.1472 3.1942 1.3398 -1.1310 3.2299 -4.5940 -3.8337 -10.6416 7.8494 -4.8808 -0.6608 3.1385 -2.2781 2.0132 -0.0000 0.0000 0.0000 -88.1351 0.7887 75.3074 87.8643 -59.9828 -58.1506 -0.0000 0.0000 -16.5897 12.0329 20.2196 4.2134 -7.1250 0.0000 -0.0000 -16.2320 49.9068 -2.0103 -0.0000 0.0000 0.0000 88.2176 -6.7545 24.6536 -17.5838 27.6209 -4.3545 0.0000 -0.0000 -6.8701 -19.8296 5.2300 -1.8827 7.1250 -0.0000 -0.0000 5.1113 -24.4236 2.5502
0.00 0.00 0.00 -2.2579 -79.1615 3.2174 0.0000 0.0000 0.0000 -21.1045 5.1225 -5.3470 1.9136 8.6838 24.8112 1.2124 -5.6266 -19.7116 0.0010 -0.2082 -0.5719 0.0000 0.0000 0.0000 17.8358 2.9951 -24.4627 -11.6332 -18.2312 64.8213 0.0576 5.2292 -1.3356 -0.7836 -5.6513 15.7759 -0.8407 0.2751 0.2875 0.1727 0.3550 2.3149 0.6535 0.1518 2.2046 -5.5218 -5.1030 -10.3905 7.9961 -6.4947 0.0885 3.2674 -3.0653 2.3784 0.0000 -0.0000 0.0000 -76.4719 21.5342 53.9451 88.4321 -59.9907 -58.6422 -0.0000 0.0000 -12.3986 13.6749 19.3428 4.6074 -7.1250 0.0000 -0.0000 -14.3359 49.2989 -1.5484 0.0000 -0.0000 0.0000 89.0572 -7.5818 25.5807 -19.5667 30.1167 -5.3122 0.0000 -0.0000 -7.6395 -21.3863 4.3035 -1.6833 7.1250 -0.0000 -0.0000 3.9594 -25.3580 1.8864
0.00 0.00 0.00 -14.2631 -81.1412 12.6452 0.0000 0.0000 0.0000 -19.2384 6.7945 6.6065 0.8193 5.7756 16.1348 1.0637 0.1634 -19.5611 0.0527 -1.4813 -4.0741 0.0000 0.0000 0.0000 16.9491 7.6389 -37.0019 -12.7636 -18.6951 68.3897 -0.5235 1.2860 -13.2842 -0.1230 -2.2612 6.2281 -1.3397 -1.0237 2.2177 -0.3427 -1.4121 3.0789 0.4048 -0.7474 1.9375 -2.9935 -2.4883 -13.4509 2.8587 -3.4012 16.5322 1.0714 -1.5883 7.3955 -0.0000 0.0000 0.0000 -78.0629 -5.0024 62.5348 103.8811 -59.2593 -71.9915 -0.0000 0.0000 -14.3232 14.2917 19.6118 4.8871 -7.1250 0.0000 -0.0000 -13.8538 49.6573 -1.6185 -0.0000 0.0000 0.0000 87.6001 -7.0960 27.5141 -18.4690 28.7535 -4.7727 0.0000 -0.0000 -6.6606 -20.4944 3.5314 -1.3189 7.1250 -0.0000 -0.0000 4.6481 -26.2058 2.1243
